<mxfile host="app.diagrams.net" modified="2022-12-04T07:51:42.369Z" agent="5.0 (Windows NT 10.0; WOW64) AppleWebKit/537.36 (KHTML, like Gecko) Chrome/108.0.0.0 Safari/537.36" etag="jDxWipHgTGq_oB8THDGA" version="20.5.3" type="github">
  <diagram id="bOa9zBhE-UNePfZZ_N-0" name="第 1 页">
    <mxGraphModel dx="1022" dy="428" grid="1" gridSize="10" guides="1" tooltips="1" connect="1" arrows="1" fold="1" page="1" pageScale="1" pageWidth="827" pageHeight="1169" math="0" shadow="0">
      <root>
        <mxCell id="0" />
        <mxCell id="1" parent="0" />
        <mxCell id="RdJbhSmqi6rSrBjilmrc-1" value="" style="endArrow=none;dashed=1;html=1;rounded=0;" edge="1" parent="1">
          <mxGeometry width="50" height="50" relative="1" as="geometry">
            <mxPoint x="50" y="370" as="sourcePoint" />
            <mxPoint x="770" y="370" as="targetPoint" />
          </mxGeometry>
        </mxCell>
        <mxCell id="RdJbhSmqi6rSrBjilmrc-2" value="硬件" style="text;html=1;strokeColor=none;fillColor=none;align=center;verticalAlign=middle;whiteSpace=wrap;rounded=0;" vertex="1" parent="1">
          <mxGeometry x="50" y="380" width="60" height="30" as="geometry" />
        </mxCell>
        <mxCell id="RdJbhSmqi6rSrBjilmrc-4" value="软件" style="text;html=1;strokeColor=none;fillColor=none;align=center;verticalAlign=middle;whiteSpace=wrap;rounded=0;" vertex="1" parent="1">
          <mxGeometry x="50" y="320" width="60" height="30" as="geometry" />
        </mxCell>
        <mxCell id="RdJbhSmqi6rSrBjilmrc-5" value="cpu" style="rounded=0;whiteSpace=wrap;html=1;" vertex="1" parent="1">
          <mxGeometry x="120" y="380" width="60" height="30" as="geometry" />
        </mxCell>
        <mxCell id="RdJbhSmqi6rSrBjilmrc-6" value="内存" style="rounded=0;whiteSpace=wrap;html=1;" vertex="1" parent="1">
          <mxGeometry x="190" y="380" width="60" height="30" as="geometry" />
        </mxCell>
        <mxCell id="RdJbhSmqi6rSrBjilmrc-7" value="硬盘" style="rounded=0;whiteSpace=wrap;html=1;" vertex="1" parent="1">
          <mxGeometry x="260" y="380" width="70" height="30" as="geometry" />
        </mxCell>
        <mxCell id="RdJbhSmqi6rSrBjilmrc-8" value="网卡" style="rounded=0;whiteSpace=wrap;html=1;" vertex="1" parent="1">
          <mxGeometry x="340" y="380" width="60" height="30" as="geometry" />
        </mxCell>
        <mxCell id="RdJbhSmqi6rSrBjilmrc-9" value="usb" style="rounded=0;whiteSpace=wrap;html=1;" vertex="1" parent="1">
          <mxGeometry x="414" y="380" width="56" height="30" as="geometry" />
        </mxCell>
        <mxCell id="RdJbhSmqi6rSrBjilmrc-10" value="操作系统内核" style="rounded=0;whiteSpace=wrap;html=1;" vertex="1" parent="1">
          <mxGeometry x="120" y="310" width="160" height="30" as="geometry" />
        </mxCell>
        <mxCell id="RdJbhSmqi6rSrBjilmrc-11" value="文件系统 一切皆文件" style="rounded=0;whiteSpace=wrap;html=1;" vertex="1" parent="1">
          <mxGeometry x="281" y="310" width="190" height="30" as="geometry" />
        </mxCell>
        <mxCell id="RdJbhSmqi6rSrBjilmrc-12" value="用户操作接口" style="rounded=0;whiteSpace=wrap;html=1;" vertex="1" parent="1">
          <mxGeometry x="120" y="260" width="120" height="30" as="geometry" />
        </mxCell>
        <mxCell id="RdJbhSmqi6rSrBjilmrc-13" value="图形界面" style="rounded=0;whiteSpace=wrap;html=1;" vertex="1" parent="1">
          <mxGeometry x="120" y="220" width="60" height="30" as="geometry" />
        </mxCell>
        <mxCell id="RdJbhSmqi6rSrBjilmrc-14" value="命令行" style="rounded=0;whiteSpace=wrap;html=1;" vertex="1" parent="1">
          <mxGeometry x="190" y="220" width="50" height="30" as="geometry" />
        </mxCell>
        <mxCell id="RdJbhSmqi6rSrBjilmrc-15" value="应用程序" style="rounded=0;whiteSpace=wrap;html=1;" vertex="1" parent="1">
          <mxGeometry x="260" y="260" width="210" height="30" as="geometry" />
        </mxCell>
        <mxCell id="RdJbhSmqi6rSrBjilmrc-16" value="nginx" style="rounded=0;whiteSpace=wrap;html=1;" vertex="1" parent="1">
          <mxGeometry x="260" y="220" width="40" height="30" as="geometry" />
        </mxCell>
        <mxCell id="RdJbhSmqi6rSrBjilmrc-17" value="mysql" style="rounded=0;whiteSpace=wrap;html=1;" vertex="1" parent="1">
          <mxGeometry x="310" y="220" width="50" height="30" as="geometry" />
        </mxCell>
        <mxCell id="RdJbhSmqi6rSrBjilmrc-22" value="总结" style="swimlane;fontStyle=0;childLayout=stackLayout;horizontal=1;startSize=30;horizontalStack=0;resizeParent=1;resizeParentMax=0;resizeLast=0;collapsible=1;marginBottom=0;whiteSpace=wrap;html=1;" vertex="1" parent="1">
          <mxGeometry x="530" y="200" width="230" height="150" as="geometry">
            <mxRectangle x="550" y="190" width="60" height="30" as="alternateBounds" />
          </mxGeometry>
        </mxCell>
        <mxCell id="RdJbhSmqi6rSrBjilmrc-33" value="1. docker 与虚拟机的根本区别" style="text;strokeColor=none;fillColor=none;align=left;verticalAlign=middle;spacingLeft=4;spacingRight=4;overflow=hidden;points=[[0,0.5],[1,0.5]];portConstraint=eastwest;rotatable=0;whiteSpace=wrap;html=1;" vertex="1" parent="RdJbhSmqi6rSrBjilmrc-22">
          <mxGeometry y="30" width="230" height="30" as="geometry" />
        </mxCell>
        <mxCell id="RdJbhSmqi6rSrBjilmrc-24" value="2. docker 服务其实就是一个进程" style="text;strokeColor=none;fillColor=none;align=left;verticalAlign=middle;spacingLeft=4;spacingRight=4;overflow=hidden;points=[[0,0.5],[1,0.5]];portConstraint=eastwest;rotatable=0;whiteSpace=wrap;html=1;" vertex="1" parent="RdJbhSmqi6rSrBjilmrc-22">
          <mxGeometry y="60" width="230" height="30" as="geometry" />
        </mxCell>
        <mxCell id="RdJbhSmqi6rSrBjilmrc-23" value="3. 本来后台运行的进程要前台运行" style="text;strokeColor=none;fillColor=none;align=left;verticalAlign=middle;spacingLeft=4;spacingRight=4;overflow=hidden;points=[[0,0.5],[1,0.5]];portConstraint=eastwest;rotatable=0;whiteSpace=wrap;html=1;" vertex="1" parent="RdJbhSmqi6rSrBjilmrc-22">
          <mxGeometry y="90" width="230" height="30" as="geometry" />
        </mxCell>
        <mxCell id="RdJbhSmqi6rSrBjilmrc-34" value="4. 为什么要写 dockerfile" style="text;strokeColor=none;fillColor=none;align=left;verticalAlign=middle;spacingLeft=4;spacingRight=4;overflow=hidden;points=[[0,0.5],[1,0.5]];portConstraint=eastwest;rotatable=0;whiteSpace=wrap;html=1;" vertex="1" parent="RdJbhSmqi6rSrBjilmrc-22">
          <mxGeometry y="120" width="230" height="30" as="geometry" />
        </mxCell>
        <mxCell id="RdJbhSmqi6rSrBjilmrc-18" value="web 应用" style="rounded=0;whiteSpace=wrap;html=1;" vertex="1" parent="1">
          <mxGeometry x="370" y="220" width="100" height="30" as="geometry" />
        </mxCell>
        <mxCell id="RdJbhSmqi6rSrBjilmrc-27" value="Text" style="text;html=1;strokeColor=none;fillColor=none;align=center;verticalAlign=middle;whiteSpace=wrap;rounded=0;" vertex="1" parent="1">
          <mxGeometry x="370" y="330" width="60" height="30" as="geometry" />
        </mxCell>
        <mxCell id="RdJbhSmqi6rSrBjilmrc-28" value="虚拟机实现思路的转换" style="text;html=1;strokeColor=none;fillColor=none;align=center;verticalAlign=middle;whiteSpace=wrap;rounded=0;" vertex="1" parent="1">
          <mxGeometry x="520" y="120" width="210" height="30" as="geometry" />
        </mxCell>
        <mxCell id="RdJbhSmqi6rSrBjilmrc-32" style="edgeStyle=orthogonalEdgeStyle;rounded=0;orthogonalLoop=1;jettySize=auto;html=1;exitX=1;exitY=0.5;exitDx=0;exitDy=0;entryX=0;entryY=0.5;entryDx=0;entryDy=0;" edge="1" parent="1" source="RdJbhSmqi6rSrBjilmrc-29" target="RdJbhSmqi6rSrBjilmrc-30">
          <mxGeometry relative="1" as="geometry" />
        </mxCell>
        <mxCell id="RdJbhSmqi6rSrBjilmrc-29" value="人的视角" style="rounded=0;whiteSpace=wrap;html=1;" vertex="1" parent="1">
          <mxGeometry x="530" y="150" width="70" height="20" as="geometry" />
        </mxCell>
        <mxCell id="RdJbhSmqi6rSrBjilmrc-30" value="进程的视角" style="rounded=0;whiteSpace=wrap;html=1;" vertex="1" parent="1">
          <mxGeometry x="640" y="150" width="90" height="20" as="geometry" />
        </mxCell>
      </root>
    </mxGraphModel>
  </diagram>
</mxfile>
